<svg width="45" height="31" viewBox="0 0 45 31" fill="none" xmlns="http://www.w3.org/2000/svg">
<path d="M19.7539 11.3789C19.2461 11.1836 18.7031 11.0859 18.125 11.0859C16.9375 11.0859 15.9023 11.5195 15.0195 12.3867C14.1445 13.2461 13.707 14.2773 13.707 15.4805C13.707 16.2852 13.8633 16.9141 14.1758 17.3672C14.4883 17.8203 14.9141 18.0469 15.4531 18.0469C15.9922 18.0469 16.5859 17.9102 17.2344 17.6367C17.8906 17.3555 18.8516 16.75 20.1172 15.8203V23.4492C18.4531 24.1211 16.6836 24.457 14.8086 24.457C12.9414 24.457 11.2188 24.0977 9.64062 23.3789C7.13281 22.2305 5.48047 20.4336 4.68359 17.9883C4.41797 17.1523 4.28125 16.2305 4.27344 15.2227C4.27344 14.2148 4.39844 13.25 4.64844 12.3281C4.89844 11.4062 5.26172 10.5547 5.73828 9.77344C6.69141 8.20312 8.02734 6.97266 9.74609 6.08203C11.4727 5.19141 13.4492 4.75 15.6758 4.75781C17.3711 4.75781 18.7305 4.94922 19.7539 5.33203V11.3789Z" fill="#FF7600"/>
<path d="M35.6172 12.3984C35.6172 11.0781 34.9844 10.418 33.7188 10.418C33.1719 10.418 32.5625 10.7617 31.8906 11.4492C30.8828 12.4883 30.1797 13.7266 29.7812 15.1641C29.6562 15.6172 29.5938 16.0352 29.5938 16.418C29.5938 17.7148 30.25 18.3633 31.5625 18.3633C32.0859 18.3711 32.6836 18.0234 33.3555 17.3203C34.332 16.2891 35.0234 15.0391 35.4297 13.5703C35.5547 13.1172 35.6172 12.7266 35.6172 12.3984ZM32.418 24.457C29.6445 24.457 27.2383 23.5586 25.1992 21.7617C24.5508 21.1914 23.9883 20.5391 23.5117 19.8047C22.4961 18.25 21.9883 16.5117 21.9883 14.5898C21.9883 12.6602 22.457 10.9531 23.3945 9.46875C24.332 7.98437 25.5898 6.82813 27.168 6C28.7461 5.17187 30.3789 4.75781 32.0664 4.75781C33.7617 4.75781 35.2539 4.98437 36.543 5.4375C37.832 5.89063 38.9531 6.54297 39.9062 7.39453C40.8672 8.23828 41.6211 9.27344 42.168 10.5C42.7148 11.7266 42.9883 13.1133 42.9883 14.6602C42.9883 16.582 42.5 18.293 41.5234 19.793C40.5469 21.2852 39.2461 22.4375 37.6211 23.25C35.9961 24.0547 34.2617 24.457 32.418 24.457Z" fill="#FF7600"/>
</svg>
