<svg width="43" height="38" viewBox="0 0 43 38" fill="none" xmlns="http://www.w3.org/2000/svg">
<path d="M28.0234 14H24.9863V6.20215H28.0234V14Z" fill="#FF7600"/>
<path d="M33.4741 14.2206L30.484 13.6883L31.8507 6.01111L34.8408 6.54341L33.4741 14.2206Z" fill="#FF7600"/>
<path d="M21.3359 12.2852C26.0781 11.9336 29.1719 11.7578 30.6172 11.7578C32.0703 11.7578 33.2148 11.8945 34.0508 12.168C34.8945 12.4336 35.6484 12.8047 36.3125 13.2812C37.6016 14.1953 38.5742 15.4102 39.2305 16.9258C39.8945 18.4414 40.2266 19.9766 40.2266 21.5312C40.2266 23.0859 39.9727 24.4453 39.4648 25.6094C38.9648 26.7656 38.2695 27.7422 37.3789 28.5391C35.5586 30.1875 33.2031 31.0078 30.3125 31H21.3359V12.2852ZM28.625 18.2266V25.3633C29.0391 25.0117 29.4883 24.6641 29.9727 24.3203C31.832 22.9844 32.7617 21.5859 32.7617 20.125C32.7617 19.4141 32.5508 18.7578 32.1289 18.1562C31.707 17.5469 31.1562 17.2422 30.4766 17.2422C29.8047 17.2422 29.1875 17.5703 28.625 18.2266Z" fill="#FF7600"/>
<path d="M19.7539 24.6211C19.2461 24.8164 18.7031 24.9141 18.125 24.9141C16.9375 24.9141 15.9023 24.4805 15.0195 23.6133C14.1445 22.7539 13.707 21.7227 13.707 20.5195C13.707 19.7148 13.8633 19.0859 14.1758 18.6328C14.4883 18.1797 14.9141 17.9531 15.4531 17.9531C15.9922 17.9531 16.5859 18.0898 17.2344 18.3633C17.8906 18.6445 18.8516 19.25 20.1172 20.1797V12.5508C18.4531 11.8789 16.6836 11.543 14.8086 11.543C12.9414 11.543 11.2188 11.9023 9.64062 12.6211C7.13281 13.7695 5.48047 15.5664 4.68359 18.0117C4.41797 18.8477 4.28125 19.7695 4.27344 20.7773C4.27344 21.7852 4.39844 22.75 4.64844 23.6719C4.89844 24.5938 5.26172 25.4453 5.73828 26.2266C6.69141 27.7969 8.02734 29.0273 9.74609 29.918C11.4727 30.8086 13.4492 31.25 15.6758 31.2422C17.3711 31.2422 18.7305 31.0508 19.7539 30.668V24.6211Z" fill="#FF7600"/>
<path d="M27.4092 7.61621C27.4092 7.23112 27.2246 7.03857 26.8555 7.03857C26.696 7.03857 26.5182 7.13883 26.3223 7.33936C26.0283 7.64242 25.8232 8.00358 25.707 8.42285C25.6706 8.55501 25.6523 8.67692 25.6523 8.78857C25.6523 9.16683 25.8438 9.35596 26.2266 9.35596C26.3792 9.35824 26.5535 9.25684 26.7495 9.05176C27.0343 8.75098 27.236 8.38639 27.3545 7.95801C27.391 7.82585 27.4092 7.71191 27.4092 7.61621ZM26.4761 11.1333C25.6672 11.1333 24.9653 10.8713 24.3706 10.3472C24.1815 10.1808 24.0174 9.99056 23.8784 9.77637C23.5822 9.32292 23.4341 8.81592 23.4341 8.25537C23.4341 7.69255 23.5708 7.19466 23.8442 6.76172C24.1177 6.32878 24.4845 5.99154 24.9448 5.75C25.4051 5.50846 25.8813 5.3877 26.3735 5.3877C26.868 5.3877 27.3032 5.45378 27.6792 5.58594C28.0552 5.7181 28.3822 5.90837 28.6602 6.15674C28.9404 6.40283 29.1603 6.70475 29.3198 7.0625C29.4793 7.42025 29.5591 7.82471 29.5591 8.27588C29.5591 8.83643 29.4167 9.33545 29.1318 9.77295C28.847 10.2082 28.4676 10.5443 27.9937 10.7812C27.5197 11.016 27.0138 11.1333 26.4761 11.1333Z" fill="#FF7600"/>
<path d="M34.4092 7.61621C34.4092 7.23112 34.2246 7.03857 33.8555 7.03857C33.696 7.03857 33.5182 7.13883 33.3223 7.33936C33.0283 7.64242 32.8232 8.00358 32.707 8.42285C32.6706 8.55501 32.6523 8.67692 32.6523 8.78857C32.6523 9.16683 32.8438 9.35596 33.2266 9.35596C33.3792 9.35824 33.5535 9.25684 33.7495 9.05176C34.0343 8.75098 34.236 8.38639 34.3545 7.95801C34.391 7.82585 34.4092 7.71191 34.4092 7.61621ZM33.4761 11.1333C32.6672 11.1333 31.9653 10.8713 31.3706 10.3472C31.1815 10.1808 31.0174 9.99056 30.8784 9.77637C30.5822 9.32292 30.4341 8.81592 30.4341 8.25537C30.4341 7.69255 30.5708 7.19466 30.8442 6.76172C31.1177 6.32878 31.4845 5.99154 31.9448 5.75C32.4051 5.50846 32.8813 5.3877 33.3735 5.3877C33.868 5.3877 34.3032 5.45378 34.6792 5.58594C35.0552 5.7181 35.3822 5.90837 35.6602 6.15674C35.9404 6.40283 36.1603 6.70475 36.3198 7.0625C36.4793 7.42025 36.5591 7.82471 36.5591 8.27588C36.5591 8.83643 36.4167 9.33545 36.1318 9.77295C35.847 10.2082 35.4676 10.5443 34.9937 10.7812C34.5197 11.016 34.0138 11.1333 33.4761 11.1333Z" fill="#FF7600"/>
</svg>
