<svg width="125" height="69" viewBox="0 0 125 69" fill="none" xmlns="http://www.w3.org/2000/svg">
<path d="M23.6523 47.2852H41.3711V53.3555H36.1562V66H28.8672V53.3555H23.6523V47.2852Z" fill="#FF7600"/>
<path d="M74.1367 47.2852H76.0352L86.2539 54.5742V47.2852H92.8516V66H90.332L80.7109 59.5664V66H74.1367V47.2852Z" fill="#FF7600"/>
<path d="M110.805 57.0938L112.598 57.082C113.035 57.082 113.289 57.0781 113.359 57.0703V65.7656C110.617 66.2266 108.43 66.457 106.797 66.457C105.164 66.457 103.633 66.2266 102.203 65.7656C100.773 65.2969 99.5352 64.6328 98.4883 63.7734C97.4414 62.9141 96.6211 61.875 96.0273 60.6562C95.4336 59.4297 95.1367 58.0586 95.1367 56.543C95.1367 53.5664 96.3203 51.1914 98.6875 49.418C101.062 47.6445 104.105 46.7578 107.816 46.7578C109.637 46.7578 111.078 46.9531 112.141 47.3438C112.328 47.4141 112.43 47.4492 112.445 47.4492V53.1094C111.297 52.7578 110.242 52.582 109.281 52.582C107.531 52.582 106.16 53.0469 105.168 53.9766C104.176 54.9062 103.684 55.9766 103.691 57.1875C103.691 58.0312 103.922 58.7227 104.383 59.2617C104.852 59.8008 105.492 60.0703 106.305 60.0703C106.742 60.0703 107.078 60.0156 107.312 59.9062C107.328 59.6172 107.336 59.2461 107.336 58.793V57.0938C108.492 57.0938 109.648 57.0938 110.805 57.0938Z" fill="#FF7600"/>
<path d="M43.6523 47.2852H61.3711V53.3555H56.1562V66H48.8672V53.3555H43.6523V47.2852Z" fill="#FF7600"/>
<path d="M71.1562 66H63.8672V47.2852H71.1562V66Z" fill="#FF7600"/>
<path d="M19.7539 32.3789C19.2461 32.1836 18.7031 32.0859 18.125 32.0859C16.9375 32.0859 15.9023 32.5195 15.0195 33.3867C14.1445 34.2461 13.707 35.2773 13.707 36.4805C13.707 37.2852 13.8633 37.9141 14.1758 38.3672C14.4883 38.8203 14.9141 39.0469 15.4531 39.0469C15.9922 39.0469 16.5859 38.9102 17.2344 38.6367C17.8906 38.3555 18.8516 37.75 20.1172 36.8203V44.4492C18.4531 45.1211 16.6836 45.457 14.8086 45.457C12.9414 45.457 11.2188 45.0977 9.64062 44.3789C7.13281 43.2305 5.48047 41.4336 4.68359 38.9883C4.41797 38.1523 4.28125 37.2305 4.27344 36.2227C4.27344 35.2148 4.39844 34.25 4.64844 33.3281C4.89844 32.4062 5.26172 31.5547 5.73828 30.7734C6.69141 29.2031 8.02734 27.9727 9.74609 27.082C11.4727 26.1914 13.4492 25.75 15.6758 25.7578C17.3711 25.7578 18.7305 25.9492 19.7539 26.332V32.3789Z" fill="#FF7600"/>
<path d="M35.6172 33.3984C35.6172 32.0781 34.9844 31.418 33.7188 31.418C33.1719 31.418 32.5625 31.7617 31.8906 32.4492C30.8828 33.4883 30.1797 34.7266 29.7812 36.1641C29.6562 36.6172 29.5938 37.0352 29.5938 37.418C29.5938 38.7148 30.25 39.3633 31.5625 39.3633C32.0859 39.3711 32.6836 39.0234 33.3555 38.3203C34.332 37.2891 35.0234 36.0391 35.4297 34.5703C35.5547 34.1172 35.6172 33.7266 35.6172 33.3984ZM32.418 45.457C29.6445 45.457 27.2383 44.5586 25.1992 42.7617C24.5508 42.1914 23.9883 41.5391 23.5117 40.8047C22.4961 39.25 21.9883 37.5117 21.9883 35.5898C21.9883 33.6602 22.457 31.9531 23.3945 30.4688C24.332 28.9844 25.5898 27.8281 27.168 27C28.7461 26.1719 30.3789 25.7578 32.0664 25.7578C33.7617 25.7578 35.2539 25.9844 36.543 26.4375C37.832 26.8906 38.9531 27.543 39.9062 28.3945C40.8672 29.2383 41.6211 30.2734 42.168 31.5C42.7148 32.7266 42.9883 34.1133 42.9883 35.6602C42.9883 37.582 42.5 39.293 41.5234 40.793C40.5469 42.2852 39.2461 43.4375 37.6211 44.25C35.9961 45.0547 34.2617 45.457 32.418 45.457Z" fill="#FF7600"/>
<path d="M23.3359 5.28516C28.0781 4.93359 31.1719 4.75781 32.6172 4.75781C34.0703 4.75781 35.2148 4.89453 36.0508 5.16797C36.8945 5.43359 37.6484 5.80469 38.3125 6.28125C39.6016 7.19531 40.5742 8.41016 41.2305 9.92578C41.8945 11.4414 42.2266 12.9766 42.2266 14.5312C42.2266 16.0859 41.9727 17.4453 41.4648 18.6094C40.9648 19.7656 40.2695 20.7422 39.3789 21.5391C37.5586 23.1875 35.2031 24.0078 32.3125 24H23.3359V5.28516ZM30.625 11.2266V18.3633C31.0391 18.0117 31.4883 17.6641 31.9727 17.3203C33.832 15.9844 34.7617 14.5859 34.7617 13.125C34.7617 12.4141 34.5508 11.7578 34.1289 11.1562C33.707 10.5469 33.1562 10.2422 32.4766 10.2422C31.8047 10.2422 31.1875 10.5703 30.625 11.2266Z" fill="#FF7600"/>
<path d="M61.2422 26.2852H68.5312V39.3633H74.8242V45H61.2422V26.2852Z" fill="#FF7600"/>
<path d="M45.2422 26.2852H52.5312V39.3633H58.8242V45H45.2422V26.2852Z" fill="#FF7600"/>
<path d="M76.418 45L85.7227 27.2344C86.043 26.6016 86.6328 26.1797 87.4922 25.9688C87.7422 25.9062 88.0508 25.875 88.418 25.875C88.7852 25.875 89.1836 25.9805 89.6133 26.1914C90.0508 26.3945 90.3945 26.7188 90.6445 27.1641L100.629 45H91.125L90.3867 43.1484H85.3242L84.6914 45H76.418ZM85.8984 39.4336H89.6836L87.8906 34.3711L85.8984 39.4336Z" fill="#FF7600"/>
<path d="M102.855 26.2852C107.098 26.0898 110.145 25.9922 111.996 25.9922C115.441 25.9922 117.914 26.3828 119.414 27.1641C120.758 27.8672 121.43 28.9336 121.43 30.3633C121.43 31.2227 121.203 31.9453 120.75 32.5312C120.305 33.1094 119.621 33.6094 118.699 34.0312C119.855 34.4219 120.746 34.9766 121.371 35.6953C122.191 36.6406 122.602 37.9375 122.602 39.5859C122.602 43.1406 119.852 45.0195 114.352 45.2227C113.562 45.2539 112.949 45.2695 112.512 45.2695C112.074 45.2695 111.695 45.2656 111.375 45.2578C111.055 45.25 110.688 45.2383 110.273 45.2227C109.867 45.2148 109.422 45.2031 108.938 45.1875C108.461 45.1797 107.977 45.1641 107.484 45.1406C106.992 45.125 106.508 45.1094 106.031 45.0938C105.555 45.0781 105.109 45.0586 104.695 45.0352C104.281 45.0195 103.914 45.0078 103.594 45C103.273 44.9844 103.027 44.9688 102.855 44.9531V26.2852ZM114.809 37.7227C114.809 37.0664 114.422 36.7383 113.648 36.7383C113.062 36.7305 112.152 37.0703 110.918 37.7578C110.629 37.9141 110.383 38.0469 110.18 38.1562V41.1094C110.289 41.0703 110.391 41.0312 110.484 40.9922C110.586 40.9531 110.812 40.8672 111.164 40.7344C112.414 40.2656 113.266 39.8789 113.719 39.5742C114.453 39.082 114.816 38.4648 114.809 37.7227ZM110.18 34.8516C111.508 34.3359 112.391 33.9258 112.828 33.6211C113.734 33.0117 114.188 32.3555 114.188 31.6523C114.188 31.1602 113.93 30.8438 113.414 30.7031C113.273 30.6641 113.125 30.6445 112.969 30.6445C112.812 30.6445 112.629 30.6719 112.418 30.7266C112.215 30.7812 112.012 30.8516 111.809 30.9375C111.496 31.0547 111.148 31.2266 110.766 31.4531C110.391 31.6719 110.195 31.7891 110.18 31.8047V34.8516Z" fill="#FF7600"/>
</svg>
