<svg width="101" height="94" viewBox="0 0 101 94" fill="none" xmlns="http://www.w3.org/2000/svg">
<path d="M3.65234 47.2852H21.3711V53.3555H16.1562V66H8.86719V53.3555H3.65234V47.2852Z" fill="#FF7600"/>
<path d="M31.1562 87H23.8672V68.2852H31.1562V87Z" fill="#FF7600"/>
<path d="M34.1367 68.2852H36.0352L46.2539 75.5742V68.2852H52.8516V87H50.332L40.7109 80.5664V87H34.1367V68.2852Z" fill="#FF7600"/>
<path d="M70.8047 78.0938L72.5977 78.082C73.0352 78.082 73.2891 78.0781 73.3594 78.0703V86.7656C70.6172 87.2266 68.4297 87.457 66.7969 87.457C65.1641 87.457 63.6328 87.2266 62.2031 86.7656C60.7734 86.2969 59.5352 85.6328 58.4883 84.7734C57.4414 83.9141 56.6211 82.875 56.0273 81.6562C55.4336 80.4297 55.1367 79.0586 55.1367 77.543C55.1367 74.5664 56.3203 72.1914 58.6875 70.418C61.0625 68.6445 64.1055 67.7578 67.8164 67.7578C69.6367 67.7578 71.0781 67.9531 72.1406 68.3438C72.3281 68.4141 72.4297 68.4492 72.4453 68.4492V74.1094C71.2969 73.7578 70.2422 73.582 69.2812 73.582C67.5312 73.582 66.1602 74.0469 65.168 74.9766C64.1758 75.9062 63.6836 76.9766 63.6914 78.1875C63.6914 79.0312 63.9219 79.7227 64.3828 80.2617C64.8516 80.8008 65.4922 81.0703 66.3047 81.0703C66.7422 81.0703 67.0781 81.0156 67.3125 80.9062C67.3281 80.6172 67.3359 80.2461 67.3359 79.793V78.0938C68.4922 78.0938 69.6484 78.0938 70.8047 78.0938Z" fill="#FF7600"/>
<path d="M3.65234 68.2852H21.3711V74.3555H16.1562V87H8.86719V74.3555H3.65234V68.2852Z" fill="#FF7600"/>
<path d="M3.33594 5.28516C8.07812 4.93359 11.1719 4.75781 12.6172 4.75781C14.0703 4.75781 15.2148 4.89453 16.0508 5.16797C16.8945 5.43359 17.6484 5.80469 18.3125 6.28125C19.6016 7.19531 20.5742 8.41016 21.2305 9.92578C21.8945 11.4414 22.2266 12.9766 22.2266 14.5312C22.2266 16.0859 21.9727 17.4453 21.4648 18.6094C20.9648 19.7656 20.2695 20.7422 19.3789 21.5391C17.5586 23.1875 15.2031 24.0078 12.3125 24H3.33594V5.28516ZM10.625 11.2266V18.3633C11.0391 18.0117 11.4883 17.6641 11.9727 17.3203C13.832 15.9844 14.7617 14.5859 14.7617 13.125C14.7617 12.4141 14.5508 11.7578 14.1289 11.1562C13.707 10.5469 13.1562 10.2422 12.4766 10.2422C11.8047 10.2422 11.1875 10.5703 10.625 11.2266Z" fill="#FF7600"/>
<path d="M56.7539 11.3789C56.2461 11.1836 55.7031 11.0859 55.125 11.0859C53.9375 11.0859 52.9023 11.5195 52.0195 12.3867C51.1445 13.2461 50.707 14.2773 50.707 15.4805C50.707 16.2852 50.8633 16.9141 51.1758 17.3672C51.4883 17.8203 51.9141 18.0469 52.4531 18.0469C52.9922 18.0469 53.5859 17.9102 54.2344 17.6367C54.8906 17.3555 55.8516 16.75 57.1172 15.8203V23.4492C55.4531 24.1211 53.6836 24.457 51.8086 24.457C49.9414 24.457 48.2188 24.0977 46.6406 23.3789C44.1328 22.2305 42.4805 20.4336 41.6836 17.9883C41.418 17.1523 41.2812 16.2305 41.2734 15.2227C41.2734 14.2148 41.3984 13.25 41.6484 12.3281C41.8984 11.4062 42.2617 10.5547 42.7383 9.77344C43.6914 8.20312 45.0273 6.97266 46.7461 6.08203C48.4727 5.19141 50.4492 4.75 52.6758 4.75781C54.3711 4.75781 55.7305 4.94922 56.7539 5.33203V11.3789Z" fill="#FF7600"/>
<path d="M15.6172 33.3984C15.6172 32.0781 14.9844 31.418 13.7188 31.418C13.1719 31.418 12.5625 31.7617 11.8906 32.4492C10.8828 33.4883 10.1797 34.7266 9.78125 36.1641C9.65625 36.6172 9.59375 37.0352 9.59375 37.418C9.59375 38.7148 10.25 39.3633 11.5625 39.3633C12.0859 39.3711 12.6836 39.0234 13.3555 38.3203C14.332 37.2891 15.0234 36.0391 15.4297 34.5703C15.5547 34.1172 15.6172 33.7266 15.6172 33.3984ZM12.418 45.457C9.64453 45.457 7.23828 44.5586 5.19922 42.7617C4.55078 42.1914 3.98828 41.5391 3.51172 40.8047C2.49609 39.25 1.98828 37.5117 1.98828 35.5898C1.98828 33.6602 2.45703 31.9531 3.39453 30.4688C4.33203 28.9844 5.58984 27.8281 7.16797 27C8.74609 26.1719 10.3789 25.7578 12.0664 25.7578C13.7617 25.7578 15.2539 25.9844 16.543 26.4375C17.832 26.8906 18.9531 27.543 19.9062 28.3945C20.8672 29.2383 21.6211 30.2734 22.168 31.5C22.7148 32.7266 22.9883 34.1133 22.9883 35.6602C22.9883 37.582 22.5 39.293 21.5234 40.793C20.5469 42.2852 19.2461 43.4375 17.6211 44.25C15.9961 45.0547 14.2617 45.457 12.418 45.457Z" fill="#FF7600"/>
<path d="M72.6172 12.3984C72.6172 11.0781 71.9844 10.418 70.7188 10.418C70.1719 10.418 69.5625 10.7617 68.8906 11.4492C67.8828 12.4883 67.1797 13.7266 66.7812 15.1641C66.6562 15.6172 66.5938 16.0352 66.5938 16.418C66.5938 17.7148 67.25 18.3633 68.5625 18.3633C69.0859 18.3711 69.6836 18.0234 70.3555 17.3203C71.332 16.2891 72.0234 15.0391 72.4297 13.5703C72.5547 13.1172 72.6172 12.7266 72.6172 12.3984ZM69.418 24.457C66.6445 24.457 64.2383 23.5586 62.1992 21.7617C61.5508 21.1914 60.9883 20.5391 60.5117 19.8047C59.4961 18.25 58.9883 16.5117 58.9883 14.5898C58.9883 12.6602 59.457 10.9531 60.3945 9.46875C61.332 7.98437 62.5898 6.82813 64.168 6C65.7461 5.17187 67.3789 4.75781 69.0664 4.75781C70.7617 4.75781 72.2539 4.98437 73.543 5.4375C74.832 5.89063 75.9531 6.54297 76.9062 7.39453C77.8672 8.23828 78.6211 9.27344 79.168 10.5C79.7148 11.7266 79.9883 13.1133 79.9883 14.6602C79.9883 16.582 79.5 18.293 78.5234 19.793C77.5469 21.2852 76.2461 22.4375 74.6211 23.25C72.9961 24.0547 71.2617 24.457 69.418 24.457Z" fill="#FF7600"/>
<path d="M82.2422 5.28516H89.5312V18.3633H95.8242V24H82.2422V5.28516Z" fill="#FF7600"/>
<path d="M82.2422 26.2852H89.5312V39.3633H95.8242V45H82.2422V26.2852Z" fill="#FF7600"/>
<path d="M74.418 66L83.7227 48.2344C84.043 47.6016 84.6328 47.1797 85.4922 46.9688C85.7422 46.9062 86.0508 46.875 86.418 46.875C86.7852 46.875 87.1836 46.9805 87.6133 47.1914C88.0508 47.3945 88.3945 47.7188 88.6445 48.1641L98.6289 66H89.125L88.3867 64.1484H83.3242L82.6914 66H74.418ZM83.8984 60.4336H87.6836L85.8906 55.3711L83.8984 60.4336Z" fill="#FF7600"/>
<path d="M76.8555 68.2852C81.0977 68.0898 84.1445 67.9922 85.9961 67.9922C89.4414 67.9922 91.9141 68.3828 93.4141 69.1641C94.7578 69.8672 95.4297 70.9336 95.4297 72.3633C95.4297 73.2227 95.2031 73.9453 94.75 74.5312C94.3047 75.1094 93.6211 75.6094 92.6992 76.0312C93.8555 76.4219 94.7461 76.9766 95.3711 77.6953C96.1914 78.6406 96.6016 79.9375 96.6016 81.5859C96.6016 85.1406 93.8516 87.0195 88.3516 87.2227C87.5625 87.2539 86.9492 87.2695 86.5117 87.2695C86.0742 87.2695 85.6953 87.2656 85.375 87.2578C85.0547 87.25 84.6875 87.2383 84.2734 87.2227C83.8672 87.2148 83.4219 87.2031 82.9375 87.1875C82.4609 87.1797 81.9766 87.1641 81.4844 87.1406C80.9922 87.125 80.5078 87.1094 80.0312 87.0938C79.5547 87.0781 79.1094 87.0586 78.6953 87.0352C78.2812 87.0195 77.9141 87.0078 77.5938 87C77.2734 86.9844 77.0273 86.9688 76.8555 86.9531V68.2852ZM88.8086 79.7227C88.8086 79.0664 88.4219 78.7383 87.6484 78.7383C87.0625 78.7305 86.1523 79.0703 84.918 79.7578C84.6289 79.9141 84.3828 80.0469 84.1797 80.1562V83.1094C84.2891 83.0703 84.3906 83.0312 84.4844 82.9922C84.5859 82.9531 84.8125 82.8672 85.1641 82.7344C86.4141 82.2656 87.2656 81.8789 87.7188 81.5742C88.4531 81.082 88.8164 80.4648 88.8086 79.7227ZM84.1797 76.8516C85.5078 76.3359 86.3906 75.9258 86.8281 75.6211C87.7344 75.0117 88.1875 74.3555 88.1875 73.6523C88.1875 73.1602 87.9297 72.8438 87.4141 72.7031C87.2734 72.6641 87.125 72.6445 86.9688 72.6445C86.8125 72.6445 86.6289 72.6719 86.418 72.7266C86.2148 72.7812 86.0117 72.8516 85.8086 72.9375C85.4961 73.0547 85.1484 73.2266 84.7656 73.4531C84.3906 73.6719 84.1953 73.7891 84.1797 73.8047V76.8516Z" fill="#FF7600"/>
</svg>
